<?xml version="1.0" encoding="UTF-8"?>
<svg width="85px" height="20px" viewBox="0 0 85 20" version="1.1" xmlns="http://www.w3.org/2000/svg" xmlns:xlink="http://www.w3.org/1999/xlink">
    <g id="Page-1" stroke="none" stroke-width="1" fill="none" fill-rule="evenodd">
        <g id="Artboard" transform="translate(-74.000000, -126.000000)" fill="#0062FF">
            <g id="Group-3" transform="translate(74.000000, 114.000000)">
                <g id="Group-4" transform="translate(0.000000, 12.000000)">
                    <path d="M0,18.197709 C0,19.2909035 0.709421326,19.9999 1.80301666,19.9999 L7.07100275,20 C10.2136262,20 12.7843906,18.9371053 14.5321822,17.0764146 L0,17.0764146 L0,18.197709 Z M7.07100275,9.99995e-05 L1.80301666,0 C0.709421326,0 0,0.709096455 0,1.80229099 L0,2.92358538 L14.5321822,2.92358538 C12.7843906,1.06289469 10.2136262,9.99995e-05 7.07100275,9.99995e-05 Z M11.6683851,12.8497358 C11.6683851,13.7341313 12.2447461,14.3079285 13.1333486,14.3079285 L16.2899784,14.3079285 C16.6478405,13.4203329 16.8882494,12.4445378 17,11.391543 L13.1333486,11.391543 C12.2447461,11.391543 11.6683851,11.9652402 11.6683851,12.8497358 Z M7.2930033,7.15746421 C7.2930033,8.04195979 7.86936436,8.61565692 8.75796684,8.61565692 L17,8.61565692 C16.8882494,7.56266219 16.6478405,6.58686707 16.2899784,5.6992715 L8.75796684,5.6992715 C7.86936436,5.6992715 7.2930033,6.27296864 7.2930033,7.15746421 Z M8.75696639,12.8497358 C8.75696639,11.9652402 8.18060533,11.391543 7.29200285,11.391543 L0,11.391543 L0,14.3079285 L7.29200285,14.3079285 C8.18060533,14.3079285 8.75696639,13.7342313 8.75696639,12.8497358 Z M4.3815846,7.15746421 C4.3815846,6.27296864 3.80522354,5.6992715 2.91662106,5.6992715 L0,5.6992715 L0,8.61565692 L2.91662106,8.61565692 C3.80522354,8.61565692 4.3815846,8.04195979 4.3815846,7.15746421 Z" id="D-Copy"></path>
                    <g id="logo" transform="translate(24.000000, 3.000000)">
                        <g id="Group">
                            <path d="M13.0722497,6.69886142 C13.3069767,5.55754823 14.0652368,4.97722848 15.061887,4.97722848 C16.0499578,4.97722848 16.7724545,5.58356439 17.0029401,6.69886142 L13.0722497,6.69886142 Z M15.1160622,3 C12.578407,3 11,5.03180933 11,7.51704324 C11,10.0909445 12.686661,12 15.1934691,12 C16.9223521,12 17.9710568,11.1988083 18.6200988,10.1899121 L17.0062176,9.15669872 C16.600482,9.71217037 15.9512471,10.0056752 15.2553561,10.0056752 C14.117002,10.0056752 13.3546933,9.4715474 13.094903,8.40339803 L17.3545969,8.40339803 C17.3542114,8.40477848 17.3539222,8.40615893 17.3535366,8.40764557 L18.9063984,8.41677777 C18.965297,8.13569701 19,7.84527167 19,7.51704324 C19,5.352286 17.6692373,3 15.1160622,3 Z" id="Fill-4"></path>
                            <path d="M4.5,10 C2.93862451,10 2,8.88064153 2,7.49994477 C2,6.11924802 2.95661659,5 4.5,5 C6.04338341,5 7,6.11924802 7,7.49994477 C7,8.88064153 6.06137549,10 4.5,10 Z M6.82985561,4.32139237 C6.20641593,3.57257191 5.32119236,3.11354979 4.22239171,3.11354979 C1.76636004,3.11354979 0,5.10292524 0,7.55677489 C0,10.0107294 1.74959245,12 4.22239171,12 C5.32119236,12 6.20641593,11.5409779 6.82985561,10.7921574 L6.82985561,11.7811834 L9,11.7811834 L9,0 L6.82985561,0 L6.82985561,4.32139237 Z" id="Fill-6"></path>
                            <path d="M25.6364228,7.35232929 C26.2255763,7.76390718 26.5989807,8.38106479 26.5989807,9.19543245 C26.5989807,10.8413256 25.4895851,11.9832607 23.415428,11.9832607 C21.4634687,11.9832607 20.4167746,10.9830866 20,9.97297362 L21.7915998,8.92676645 C21.7915998,8.92676645 22.0327901,10.018379 23.383276,10.018379 C24.2193291,10.018379 24.4766456,9.64885864 24.4766456,9.32254662 C24.4766456,9.17136968 24.4283675,8.8931832 23.8335047,8.65799583 C22.6386708,8.18584253 20.3284316,7.97398558 20.3284316,5.81984503 C20.3284316,4.05656747 21.7105686,3.11613185 23.415428,3.11613185 C25.0096082,3.11613185 26.0336657,4.10804086 26.4223949,4.87982789 L24.6695579,5.90385546 C24.6695579,5.90385546 24.3319114,5.04732566 23.4315541,5.04732566 C22.5311968,5.04732566 22.4507667,5.56802296 22.4507667,5.71909528 C22.4507667,6.15996698 22.9001941,6.34096082 23.8656567,6.62605227 C24.4372819,6.79480549 25.0244322,6.94807484 25.6382257,7.35075997 C25.6376247,7.35128308 25.6370237,7.35180618 25.6364228,7.35232929 Z M61,5.43361673 L59.1831594,5.43361673 L59.1831594,8.92669321 C59.1831594,10.0184104 60.2442768,9.78322302 61,9.78322302 L61,11.7481047 C61,11.7481047 60.6019558,11.8152712 59.9067305,11.8152712 C58.3632323,11.8152712 57.1091024,11.3451057 57.1091024,8.92669321 L57.1091024,5.43361673 L55.7102383,5.43361673 L55.7102383,3.35114136 L57.1091024,3.35114136 L57.1091024,1 L59.1831594,1 L59.1831594,3.35114136 L61,3.35114136 L61,5.43361673 Z M31.7552563,9.86720207 C32.6159494,9.86720207 33.2777205,9.43836175 33.6121618,8.73489206 L35.4100718,9.81164847 C34.7056316,11.102145 33.3930071,12 31.7552563,12 C29.2712358,12 27.5347252,10.0150311 27.5347252,7.56648789 C27.5347252,5.11784002 29.2872618,3.13287116 31.7552563,3.13287116 C33.3689682,3.13287116 34.6766848,4.01607925 35.3887372,5.28941799 L33.5948337,6.39076028 C33.2538819,5.6964972 32.5973192,5.26566909 31.7552563,5.26566909 C30.5001248,5.26566909 29.6088823,6.29576467 29.6088823,7.56648789 C29.6088823,8.8371065 30.4919115,9.86720207 31.7552563,9.86720207 Z" id="Combined-Shape"></path>
                            <path d="M50.8218216,9.8442996 C49.470742,9.8442996 48.6585374,8.79093641 48.6585374,7.49164294 C48.6585374,6.19234948 49.4863108,5.13909023 50.8218216,5.13909023 C52.1572351,5.13909023 52.9851059,6.19234948 52.9851059,7.49164294 C52.9851059,8.79093641 52.1729012,9.8442996 50.8218216,9.8442996 M51.0795825,3.08672628 C53.3600219,3.08672628 55,5.05894981 55,7.49164294 C55,9.92444002 53.3755907,11.8965596 51.0795825,11.8965596 C50.0593398,11.8965596 49.2374047,11.4414951 48.6585374,10.6991308 L48.6585374,15 L46.6435459,15 L46.6435459,3.32039122 L48.6585374,3.32039122 L48.6585374,4.28415513 C49.2374047,3.54179082 50.0593398,3.08672628 51.0795825,3.08672628 Z M42.7699613,11.6796088 L42.7699613,3.33700138 L44.7848555,3.33700138 L44.7848555,11.6796088 L42.7699613,11.6796088 Z M39.0148941,4.76206645 C39.4038221,3.7511122 40.195982,3.17287463 41.3890383,3.17027605 L41.3890383,5.57292952 C39.9901819,5.43156639 38.9796697,6.17455436 39.0165483,7.92963997 C39.0159645,7.92839265 39.015478,7.92704138 39.0148941,7.92569012 L39.0148941,11.6796088 L37,11.6796088 L37,3.33710533 L39.0148941,3.33710533 L39.0148941,4.76206645 Z M42.7699613,2.2236628 L42.7699613,0 L44.8513148,0 L44.8513148,2.2236628 L42.7699613,2.2236628 Z" id="Combined-Shape"></path>
                        </g>
                    </g>
                </g>
            </g>
        </g>
    </g>
</svg>