<?xml version="1.0" encoding="utf-8"?>
<!-- Generator: Adobe Illustrator 19.2.1, SVG Export Plug-In . SVG Version: 6.00 Build 0)  -->
<svg version="1.1" id="layer" xmlns="http://www.w3.org/2000/svg" xmlns:xlink="http://www.w3.org/1999/xlink" x="0px" y="0px"
	 viewBox="0 0 652 652" style="enable-background:new 0 0 652 652;" xml:space="preserve">
<path d="M185.8,287.5h16.6l1.6,8.6c3.2-6.8,10.2-10.2,17.6-10.2c3.6,0,7.3,0.9,9.7,1.9l-3.9,19.9c-2.6-1.5-5.8-2.6-9.7-2.6
	c-6.7,0-12.2,4.5-12.2,14.6v32.1h-19.7V287.5z M238.1,327.9v-40.8h20v37.1c0,7.5,4.3,11.5,10.6,11.5c6.4,0,11.9-4.9,11.9-15.7v-32.8
	h20v64.4h-16.7l-2.2-8.5c-3.2,5.1-11,10-20.7,10C247.9,353,238.1,344.8,238.1,327.9z M310.9,287.5h16.5l2.2,8.5
	c3.1-5.1,10.8-10,20.4-10c12.7,0,22.3,8.1,22.3,25v40.9h-19.7v-36.8c0-7.6-3.9-11.7-10.4-11.7c-6,0-11.5,4.9-11.5,16v32.6h-19.7
	L310.9,287.5L310.9,287.5z M376.7,287.1h19.7l11.7,43.9l10.4-28.9l-5.1-15H433l12.7,43.9l11.3-43.9h19.8l-21,64.8h-20.2l-8.7-25.8
	l-9,25.8h-20.1L376.7,287.1z M477.9,319.5c0-22.1,16-33.5,30.7-33.5c9,0,15.5,3.6,18.7,7.3l1.8-5.8h18.2v64h-17.3l-2.7-6.3
	c-2.7,3.2-8.5,7.8-19.6,7.8C491.8,353,477.9,340,477.9,319.5z M528,319.5c0-10.4-6.7-16.8-15.2-16.8c-8.6,0-15.2,6.5-15.2,16.8
	s6.6,16.8,15.2,16.8C521.3,336.3,528,329.9,528,319.5z M567.8,378l10.9-29.5l-25.9-61.4h21.2l14.4,40.1l13-40.1h20.7L588,378H567.8z
	"/>
<path d="M111.9,378c-14.2,1.3-26-15.3-35.1-23.7c-4.6,33.1-54.6,30-54.6-3.6c0-14.1,0-48.6,0-62.3c0-4.9,1.3-9.9,3.9-14.1
	c4.8-8.1,14.1-13.4,23.5-13.3c14.2,0,48.5,0,62.3,0c33.6,0,36.8,50,3.6,54.5l15.8,15.7C148.6,347.5,135.6,378.7,111.9,378z
	 M104.3,358.2c9.8,10.1,25.4-5.5,15.3-15.3l-27.3-27.3H77c0,1.5,0,14.2,0,15.3l23.6,23.6L104.3,358.2z M38.8,350.6
	c-0.2,14,21.9,14,21.6,0v-62.3c0.2-7-7.2-12.5-13.9-10.4c-0.3,0.1-0.6,0.2-0.8,0.3c-4.2,1.6-7.1,5.8-7,10.3V350.6z M111.9,299.1
	c14,0.2,14-21.8,0-21.6H74.8c2.8,5.9,2.1,15.2,2.2,21.6C79,299.1,110.9,299.1,111.9,299.1z"/>
</svg>
